<svg xmlns="http://www.w3.org/2000/svg" version="1.1" xmlns:xlink="http://www.w3.org/1999/xlink" xmlns:svgjs="http://svgjs.dev/svgjs" width="1000" height="1000" viewBox="0 0 1000 1000"><rect width="1000" height="1000" fill="#102e44"></rect><g transform="matrix(0.7,0,0,0.7,149.57575757575756,366.5487683232991)"><svg viewBox="0 0 396 151" data-background-color="#102e44" preserveAspectRatio="xMidYMid meet" height="381" width="1000" xmlns="http://www.w3.org/2000/svg" xmlns:xlink="http://www.w3.org/1999/xlink"><g id="tight-bounds" transform="matrix(1,0,0,1,0.2400000000000091,0.05731527252279989)"><svg viewBox="0 0 395.52 150.8853694549544" height="150.8853694549544" width="395.52"><g><svg viewBox="0 0 395.52 150.8853694549544" height="150.8853694549544" width="395.52"><g transform="matrix(1,0,0,1,0,91.63932276486238)"><svg viewBox="0 0 395.52 59.246046690092015" height="59.246046690092015" width="395.52"><g id="textblocktransform"><svg viewBox="0 0 395.52 59.246046690092015" height="59.246046690092015" width="395.52" id="textblock"><g><svg viewBox="0 0 395.52 41.34806689013373" height="41.34806689013373" width="395.52"><g transform="matrix(1,0,0,1,0,0)"><svg width="395.52" viewBox="2.08 -41.94 405.85132275014405 42.43" height="41.34806689013373" data-palette-color="#ffffff"><path d="M2.08-2.47L3.69-5.88Q9.23-2.95 14.53-2.95L14.53-2.95Q20.68-2.95 21.73-6.88L21.73-6.88Q22.07-8.18 22.07-9.86L22.07-9.86 22.07-10.82Q22.07-12.52 21.83-13.57 21.58-14.62 20.8-15.28L20.8-15.28Q19.53-16.38 14.79-17.11L14.79-17.11Q10.57-17.77 8.96-18.36 7.35-18.95 6.31-19.64 5.27-20.34 4.54-21.39L4.54-21.39Q3.03-23.58 3.03-27.47L3.03-27.47 3.03-27.71Q3.03-35.77 9.72-37.35L9.72-37.35Q11.84-37.84 14.53-37.84L14.53-37.84 14.84-37.84Q21.12-37.84 25.1-36.04L25.1-36.04 23.83-32.3Q19.02-34.38 14.97-34.38L14.97-34.38 14.75-34.38Q10.28-34.38 8.59-32.69L8.59-32.69Q7.18-31.27 7.18-27.78L7.18-27.78 7.18-27.69Q7.18-23.71 9.38-22.46L9.38-22.46Q10.86-21.66 14.71-21.04 18.55-20.43 20.43-20.01 22.31-19.58 23.63-18.6L23.63-18.6Q26.37-16.55 26.37-10.82L26.37-10.82 26.37-10.5Q26.37-1.73 19.31-0.05L19.31-0.05Q17.14 0.49 15.21 0.49 13.28 0.49 11.71 0.35 10.13 0.22 8.5-0.12L8.5-0.12Q4.66-0.9 2.08-2.47L2.08-2.47ZM33.74-14.45L33.74-14.45Q33.74-20 34.3-22.19 34.86-24.39 35.68-25.67 36.5-26.95 37.89-27.81L37.89-27.81Q40.67-29.54 46.12-29.54L46.12-29.54Q53.98-29.54 56.22-25.66L56.22-25.66Q57.57-23.32 57.76-19.04L57.76-19.04Q57.83-17.02 57.83-14.58 57.83-12.13 57.68-10.02 57.52-7.91 57.05-6.23 56.59-4.54 55.76-3.28 54.93-2.03 53.56-1.17L53.56-1.17Q50.88 0.49 45.73 0.49L45.73 0.49Q38.01 0.49 35.59-3.32L35.59-3.32Q34.1-5.69 33.86-9.96L33.86-9.96Q33.74-12.01 33.74-14.45ZM40.38-4.27Q41.26-3.61 42.59-3.28 43.92-2.95 46.23-2.95 48.53-2.95 50.11-3.61 51.68-4.27 52.48-5.73 53.27-7.18 53.48-9.5 53.68-11.82 53.68-14.89 53.68-17.97 53.5-20.02 53.32-22.07 52.59-23.41L52.59-23.41Q51.12-26.05 46.07-26.05L46.07-26.05Q40.72-26.05 39.11-23.41L39.11-23.41Q38.3-22.07 38.08-20 37.86-17.92 37.86-15.48 37.86-13.04 37.92-11.34 37.99-9.64 38.24-8.29 38.5-6.93 39-5.93 39.5-4.93 40.38-4.27ZM80.66-25.73L80.66-25.73Q76.68-25.73 71.97-22.92L71.97-22.92 71.97 0 67.91 0 67.91-29.05 71.48-29.05 71.87-26.05Q76.14-29.54 81.44-29.54L81.44-29.54Q84.47-29.54 86.21-28.67 87.96-27.81 88.74-25.83L88.74-25.83Q94.14-29.54 98.99-29.54L98.99-29.54Q103.58-29.54 105.37-27.44L105.37-27.44Q107.08-25.42 107.08-20.24L107.08-20.24 107.08 0 102.97 0 102.97-19.48Q102.97-23 102.29-24.01 101.61-25.02 100.67-25.38 99.73-25.73 98.47-25.73 97.21-25.73 96.1-25.5 94.99-25.27 93.84-24.88L93.84-24.88Q91.52-24.07 89.4-22.83L89.4-22.83Q89.52-21.36 89.52-20.24L89.52-20.24 89.52 0 85.42 0 85.42-19.48Q85.42-23 84.74-24.01 84.05-25.02 83.11-25.38 82.17-25.73 80.66-25.73ZM139.4-5.03L140.59-1.54Q135.54 0.49 129.44 0.49L129.44 0.49Q125.9 0.49 123.43-0.24L123.43-0.24Q119.5-1.37 118.21-4.88L118.21-4.88Q117.01-8.18 117.01-14.65L117.01-14.65 117.01-15.89Q117.01-23.63 120.23-26.76L120.23-26.76Q123.14-29.54 129.92-29.54L129.92-29.54Q136.54-29.54 138.96-26.27L138.96-26.27Q140.13-24.68 140.51-22.42 140.89-20.17 140.89-18.12L140.89-18.12Q140.89-14.92 140.74-13.16L140.74-13.16Q137.3-13.01 134.56-13.01L134.56-13.01Q134.56-13.01 130.63-13.01L130.63-13.01Q124.48-13.01 121.16-13.55L121.16-13.55Q121.16-7.93 122.58-5.71L122.58-5.71Q124.31-3 129.48-3 134.66-3 139.4-5.03L139.4-5.03ZM121.16-16.41L136.76-16.41 136.76-18.75Q136.76-22.58 135.27-24.22L135.27-24.22Q133.61-26.05 129.53-26.05L129.53-26.05Q124.65-26.05 122.87-23.93L122.87-23.93Q121.16-21.9 121.16-16.41L121.16-16.41ZM164.05-4.57L165.44-1.39Q161.46 0.49 158.1 0.49L158.1 0.49Q151.99 0.49 151.16-4.74L151.16-4.74Q150.97-5.98 150.97-8.35L150.97-8.35 150.97-25.66 147.45-25.66 147.45-28.66 150.97-29.05 151.6-35.69 154.99-35.69 154.99-29.05 163.47-29.05 163.47-25.66 154.99-25.66 154.99-8.42Q154.99-5.42 155.43-4.59L155.43-4.59Q156.24-3.08 158.66-3.08 161.07-3.08 164.05-4.57L164.05-4.57ZM185.71-25.76L185.71-25.76Q180.85-25.76 176.06-22.95L176.06-22.95 176.06 0 172.01 0 172.01-41.55 175.96-41.94 175.96-26.05Q178.48-28.2 182.51-29.15L182.51-29.15Q184.12-29.54 186.32-29.54 188.51-29.54 190.17-29.04 191.83-28.54 192.81-27.44L192.81-27.44Q194.57-25.46 194.57-20.24L194.57-20.24 194.57 0 190.47 0 190.47-19.51Q190.47-23.02 189.78-24.04 189.1-25.05 188.16-25.4 187.22-25.76 185.71-25.76ZM208.19-36.01L208.19-36.01Q206.55-36.01 206.09-36.47L206.09-36.47Q205.36-37.23 205.36-38.56 205.36-39.89 205.51-40.47 205.67-41.04 205.99-41.36L205.99-41.36Q206.58-41.94 207.79-41.94 208.99-41.94 209.52-41.82 210.04-41.7 210.39-41.36L210.39-41.36Q210.97-40.77 210.97-39.44 210.97-38.11 210.84-37.54 210.7-36.96 210.39-36.62L210.39-36.62Q209.78-36.01 208.19-36.01ZM206.26 0L206.21-29.05 210.21-29.05 210.21 0 206.26 0ZM235.7-25.73L235.7-25.73Q230.94-25.73 226.01-22.92L226.01-22.92 226.01 0 221.96 0 221.96-29.05 225.52-29.05 225.91-26.05Q228.57-28.22 232.53-29.15L232.53-29.15Q234.14-29.54 236.31-29.54 238.48-29.54 240.14-29.04 241.8-28.54 242.78-27.44L242.78-27.44Q244.56-25.46 244.56-20.24L244.56-20.24 244.56 0 240.46 0 240.46-19.48Q240.46-23 239.78-24.01 239.09-25.02 238.15-25.38 237.21-25.73 235.7-25.73ZM260.87-16.8L260.87-16.8 259.72-16.77 259.72 0 255.57 0 255.57-37.35 259.72-37.35 259.72-19.82Q261.09-19.82 261.5-20.03 261.92-20.24 262.48-20.64 263.04-21.04 264.14-22.3 265.24-23.56 266.48-25.17L266.48-25.17Q269.78-29.64 271.17-31.71L271.17-31.71 273.44-35.18Q274.32-36.57 274.76-37.38L274.76-37.38 279.59-37.38Q279.37-36.89 278.74-35.89L278.74-35.89Q276.62-32.62 275.35-30.86L275.35-30.86 270.66-24.54 268.53-21.92Q266.36-19.34 265.65-19.07L265.65-19.07 265.65-18.85 266.41-18.55Q268.1-17.92 270.73-14.43L270.73-14.43 281.47 0 276.18 0 268.34-11.08Q264.41-16.6 261.67-16.77L261.67-16.77Q261.28-16.8 260.87-16.8ZM324.14-27.78L324.14-27.78Q324.14-20.26 318.46-19.51L318.46-19.51 318.46-19.43Q321.97-19.17 323.71-17.43L323.71-17.43Q325.71-15.38 325.71-11.49 325.71-7.59 324.82-5.44 323.93-3.3 322.34-2.1L322.34-2.1Q319.63 0 313.82 0L313.82 0 301.34 0 301.34-37.23Q308.1-37.87 312.5-37.87 316.89-37.87 318.94-37.19 321-36.52 322.14-35.25L322.14-35.25Q324.14-33.03 324.14-27.78ZM305.49-20.68L310.99-20.68Q315.89-20.68 317.8-22.07L317.8-22.07Q319.97-23.63 319.97-27.88L319.97-27.88 319.97-28.39Q319.97-31.67 318.53-33.06L318.53-33.06Q317.09-34.42 313.62-34.42L313.62-34.42Q310.72-34.42 308.69-34.3L308.69-34.3 305.49-34.11 305.49-20.68ZM305.49-3.47L314.33-3.47Q317.92-3.47 319.46-4.83L319.46-4.83Q321.39-6.57 321.39-11.04L321.39-11.04Q321.39-16.21 317.6-17.09L317.6-17.09Q316.45-17.36 315.11-17.36L315.11-17.36 305.49-17.36 305.49-3.47ZM333.47-14.45L333.47-14.45Q333.47-20 334.03-22.19 334.59-24.39 335.41-25.67 336.23-26.95 337.62-27.81L337.62-27.81Q340.4-29.54 345.85-29.54L345.85-29.54Q353.71-29.54 355.95-25.66L355.95-25.66Q357.3-23.32 357.49-19.04L357.49-19.04Q357.57-17.02 357.57-14.58 357.57-12.13 357.41-10.02 357.25-7.91 356.78-6.23 356.32-4.54 355.49-3.28 354.66-2.03 353.29-1.17L353.29-1.17Q350.61 0.49 345.46 0.49L345.46 0.49Q337.74 0.49 335.32-3.32L335.32-3.32Q333.83-5.69 333.59-9.96L333.59-9.96Q333.47-12.01 333.47-14.45ZM340.11-4.27Q340.99-3.61 342.32-3.28 343.65-2.95 345.96-2.95 348.26-2.95 349.84-3.61 351.41-4.27 352.21-5.73 353-7.18 353.21-9.5 353.41-11.82 353.41-14.89 353.41-17.97 353.23-20.02 353.05-22.07 352.32-23.41L352.32-23.41Q350.85-26.05 345.8-26.05L345.8-26.05Q340.45-26.05 338.84-23.41L338.84-23.41Q338.03-22.07 337.81-20 337.59-17.92 337.59-15.48 337.59-13.04 337.66-11.34 337.72-9.64 337.97-8.29 338.23-6.93 338.73-5.93 339.23-4.93 340.11-4.27ZM380.51-4.57L381.9-1.39Q377.92 0.49 374.55 0.49L374.55 0.49Q368.45 0.49 367.62-4.74L367.62-4.74Q367.43-5.98 367.43-8.35L367.43-8.35 367.43-25.66 363.91-25.66 363.91-28.66 367.43-29.05 368.06-35.69 371.45-35.69 371.45-29.05 379.93-29.05 379.93-25.66 371.45-25.66 371.45-8.42Q371.45-5.42 371.89-4.59L371.89-4.59Q372.7-3.08 375.12-3.08 377.53-3.08 380.51-4.57L380.51-4.57ZM386.74-2.39L388.49-5.76Q393.52-2.95 398.6-2.95L398.6-2.95Q402.82-2.95 403.56-5.96L403.56-5.96Q403.8-6.98 403.8-8.46 403.8-9.94 403.46-10.75 403.12-11.57 402.31-11.98 401.51-12.38 400.18-12.57 398.84-12.77 396.79-13.12 394.74-13.48 393.03-13.92 391.32-14.36 390.13-15.19L390.13-15.19Q387.59-16.97 387.69-21.19L387.69-21.19 387.69-21.8Q387.69-26.25 390.62-28.13L390.62-28.13Q393.45-29.98 399.97-29.39L399.97-29.39Q404.41-28.98 407.05-27.86L407.05-27.86 405.9-24.17Q402.97-25.42 398.87-25.98L398.87-25.98Q397.6-26.15 396.49-26.15 395.38-26.15 394.47-25.98 393.57-25.81 392.96-25.34L392.96-25.34Q391.79-24.39 391.74-21.8L391.74-21.8Q391.67-18.75 393.45-17.92L393.45-17.92Q395.16-17.11 397.5-16.81 399.85-16.5 401.33-16.27 402.82-16.04 404.04-15.65 405.27-15.26 406.14-14.4L406.14-14.4Q407.98-12.67 407.93-8.37L407.93-8.37Q407.8-0.88 401.68 0.17L401.68 0.17Q399.82 0.49 397.97 0.49 396.11 0.49 394.56 0.26 393.01 0.02 391.59-0.39L391.59-0.39Q388.91-1.15 386.74-2.39L386.74-2.39Z" opacity="1" transform="matrix(1,0,0,1,0,0)" fill="#ffffff" class="undefined-text-0" data-fill-palette-color="primary" id="text-0"></path></svg></g></svg></g><g transform="matrix(1,0,0,1,75.54432,51.10935312928894)"><svg viewBox="0 0 244.43135999999998 8.136693560803078" height="8.136693560803078" width="244.43135999999998"><g transform="matrix(1,0,0,1,0,0)"><svg width="244.43135999999998" viewBox="2.5 -31.9 961.22 32" height="8.136693560803078" data-palette-color="#ffffff"><path d="M10.75-31.7Q17.55-31.7 21.53-29.83 25.5-27.95 27.55-25.65L27.55-25.65Q29.2-23.75 30.25-21.28 31.3-18.8 31.3-15.35L31.3-15.35Q31.3-12.8 30.15-10.03 29-7.25 27.15-5.55L27.15-5.55Q25.2-3.7 23.48-2.55 21.75-1.4 18.82-0.68 15.9 0.05 11.4 0.05L11.4 0.05Q8 0.05 5.25-0.73 2.5-1.5 2.5-3.35L2.5-3.35Q2.5-4.1 3.18-4.53 3.85-4.95 4.65-4.95L4.65-4.95Q5.1-4.95 5.25-4.9L5.25-4.9Q5.6-8.2 5.6-11.9L5.6-11.9Q5.6-16.05 5.4-18.78 5.2-21.5 4.85-24.2L4.85-24.2Q4.8-24.55 4.63-26.15 4.45-27.75 4.45-29.4L4.45-29.4Q4.45-30.45 5.5-31.18 6.55-31.9 7.65-31.9L7.65-31.9Q8.3-31.9 9.4-31.8L9.4-31.8Q10.3-31.7 10.75-31.7L10.75-31.7ZM10.1-4.65Q11.3-4.45 13.25-4.45L13.25-4.45Q16.55-4.45 19.5-5.83 22.45-7.2 24.25-9.68 26.05-12.15 26.05-15.4L26.05-15.4Q26.05-18.8 24.85-21.2 23.65-23.6 21.15-25.15L21.15-25.15Q19.3-26.3 16.6-26.83 13.9-27.35 10.1-27.35L10.1-27.35Q10.1-26.15 10.25-24.35L10.25-24.35Q10.25-23.75 10.35-22.25L10.35-22.25Q10.65-16.45 10.65-12.9L10.65-12.9Q10.65-7.75 10.1-4.65L10.1-4.65ZM44.75-27.6Q44.6-24.4 44.6-21.45L44.6-21.45Q44.6-18.4 45-12.5L45-12.5Q45.05-11.6 45.2-8.88 45.35-6.15 45.35-3.9L45.35-3.9Q45.85-3.95 46.42-4.05 47-4.15 47.3-4.15L47.3-4.15Q48.4-4.15 49.05-3.6 49.7-3.05 49.7-1.9L49.7-1.9Q49.7-1.15 49.1-0.75 48.5-0.35 47.02-0.18 45.55 0 42.75 0L42.75 0Q39.65 0 38.1-0.2 36.55-0.4 35.95-0.98 35.35-1.55 35.35-2.7L35.35-2.7Q35.35-3.55 35.9-3.85 36.45-4.15 37.45-4.15L37.45-4.15 38.5-4.1 40.15-4 39.9-9.9Q39.6-14.7 39.6-18.7L39.6-18.7Q39.6-20.85 39.75-24.6L39.75-24.6 39.85-27.35Q38.15-27.25 37.2-27.25L37.2-27.25Q36.1-27.25 35.72-27.65 35.35-28.05 35.35-29.3L35.35-29.3Q35.35-30.7 37.27-31.1 39.2-31.5 43.15-31.5L43.15-31.5Q46.2-31.5 47.72-31.3 49.25-31.1 49.25-30.4L49.25-30.4Q49.25-28.7 48.52-28.18 47.8-27.65 45.75-27.65L45.75-27.65 44.75-27.6ZM77.8-9.05Q77.8-6.7 76.72-5.03 75.65-3.35 73.2-1.95L73.2-1.95Q71.55-0.95 69.34-0.45 67.15 0.05 64.9 0.05L64.9 0.05Q62.6 0.05 59.2-1.45L59.2-1.45Q56.75-2.65 55.32-4.3 53.9-5.95 53.9-7.9L53.9-7.9Q53.9-9.25 54.5-9.88 55.1-10.5 56.45-10.5L56.45-10.5Q57.15-10.5 57.9-9.93 58.65-9.35 58.8-8.8L58.8-8.8Q59.5-6.75 61.25-5.68 63-4.6 65.59-4.6L65.59-4.6Q68.59-4.6 70.62-5.7 72.65-6.8 72.65-8.65L72.65-8.65Q72.65-10.45 70.45-11.85 68.25-13.25 65.95-13.8L65.95-13.8Q62.65-14.7 60.1-15.95L60.1-15.95Q57.45-17.25 56.15-19.15 54.85-21.05 54.85-23.15L54.85-23.15Q54.85-25.1 56.2-27.13 57.55-29.15 59.4-30.05L59.4-30.05Q60.4-30.55 62.82-31.13 65.25-31.7 66.34-31.7L66.34-31.7Q67.8-31.7 69.55-31.35 71.3-31 72.4-30.35L72.4-30.35Q74.59-29.1 75.65-28.1 76.7-27.1 76.7-25.6L76.7-25.6Q76.7-24.7 76.02-24 75.34-23.3 73.7-23.3L73.7-23.3Q73.3-23.3 72.9-23.65 72.5-24 71.9-24.7L71.9-24.7Q71.09-25.75 70.34-26.1L70.34-26.1Q69.59-26.35 68.17-26.65 66.75-26.95 65.65-26.95L65.65-26.95Q64.45-26.95 63.15-26.45 61.85-25.95 60.97-25.03 60.1-24.1 60.1-22.9L60.1-22.9Q60.1-21.9 61.02-21.18 61.95-20.45 63.25-20L63.25-20Q64.75-19.4 66.5-18.95L66.5-18.95Q68.8-18.25 70.27-17.68 71.75-17.1 73.15-16.25L73.15-16.25Q75.59-14.8 76.7-13.28 77.8-11.75 77.8-9.05L77.8-9.05ZM107.84-27.75Q108.59-26.85 108.89-26.3 109.19-25.75 109.19-25.25L109.19-25.25Q109.19-24.65 108.42-23.85 107.64-23.05 106.89-23.05L106.89-23.05Q105.89-23.05 105.29-23.35 104.69-23.65 104.29-24.3L104.29-24.3Q103.49-25.5 102.34-26.38 101.19-27.25 98.74-27.25L98.74-27.25Q96.64-27.25 93.97-26.3 91.29-25.35 90.14-23.95L90.14-23.95Q89.14-22.7 88.42-20.15 87.69-17.6 87.69-15.2L87.69-15.2Q87.69-12.3 88.97-9.88 90.24-7.45 92.67-6 95.09-4.55 98.49-4.55L98.49-4.55Q100.34-4.55 102.32-5.28 104.29-6 105.74-7.65L105.74-7.65 105.69-7.65Q106.59-8.6 107.94-8.6L107.94-8.6Q108.74-8.6 109.47-7.9 110.19-7.2 110.19-6.5L110.19-6.5Q110.19-5.75 109.97-5.18 109.74-4.6 109.14-3.9L109.14-3.9Q107.09-1.6 104.29-0.75 101.49 0.1 97.59 0.1L97.59 0.1Q94.14 0.1 90.62-1.55 87.09-3.2 85.19-5.55L85.19-5.55Q84.19-7 83.27-9.73 82.34-12.45 82.34-14.15L82.34-14.15Q82.34-18.5 83.67-22.43 84.99-26.35 87.64-28.7L87.64-28.7Q89.39-30.3 92.69-31.1 95.99-31.9 98.74-31.9L98.74-31.9Q102.09-31.9 104.02-30.98 105.94-30.05 107.84-27.75L107.84-27.75ZM129.34-31.8Q132.69-31.8 135.44-30.98 138.19-30.15 139.94-28.55L139.94-28.55Q143.09-25.7 144.37-22.33 145.64-18.95 145.64-13.7L145.64-13.7Q145.64-12.6 145.37-11.7 145.09-10.8 144.49-9.4L144.49-9.4Q143.74-7.85 143.59-6.95L143.59-6.95Q142.59-5.2 140.31-3.6 138.04-2 135.39-1 132.74 0 130.74 0L130.74 0Q121.09 0 116.99-6.6L116.99-6.6Q115.84-8.45 115.22-10.45 114.59-12.45 114.59-14.35L114.59-14.35Q114.59-19.45 116.42-23.23 118.24-27 121.49-29.1L121.49-29.1Q123.44-30.25 125.57-31.03 127.69-31.8 129.34-31.8L129.34-31.8ZM119.79-14.2Q119.79-11.5 121.02-9.75 122.24-8 124.79-5.95L124.79-5.95Q126.89-5.15 127.64-4.93 128.39-4.7 129.34-4.7L129.34-4.7Q134.39-4.7 137.39-7.45 140.39-10.2 140.39-15L140.39-15Q140.39-18.8 139.54-21 138.69-23.2 136.49-24.95L136.49-24.95Q135.34-25.9 133.56-26.35 131.79-26.8 129.74-26.8L129.74-26.8Q126.64-26.8 124.39-24.98 122.14-23.15 120.97-20.25 119.79-17.35 119.79-14.2L119.79-14.2ZM168.04-13.25Q169.79-10.3 171.56-8.03 173.34-5.75 176.24-2.45L176.24-2.45Q176.59-2.1 176.59-1.65L176.59-1.65Q176.59-0.95 175.81-0.45 175.04 0.05 173.94 0.05L173.94 0.05Q172.39 0.05 170.59-1.25L170.59-1.25Q168.99-2.4 167.74-4.3 166.49-6.2 164.84-9.25L164.84-9.25Q163.54-11.6 163.29-12L163.29-12Q161.34-11.2 157.19-11L157.19-11Q157.19-9.3 157.49-6.4L157.49-6.4Q157.79-3.4 157.79-2.05L157.79-2.05Q157.79-1.15 156.91-0.55 156.04 0.05 154.94 0.05L154.94 0.05Q153.64 0.05 152.94-1L152.94-1Q152.24-2.4 152.04-4.35 151.84-6.3 151.84-9L151.84-9Q151.84-11.85 152.19-15.45L152.19-15.45Q152.49-19.45 152.49-21.35L152.49-21.35Q152.49-22.9 152.19-25.5L152.19-25.5Q152.14-25.95 152.04-27.05 151.94-28.15 151.94-29.05L151.94-29.05Q151.94-29.75 152.46-30.28 152.99-30.8 153.59-31L153.59-31Q157.64-31.65 161.49-31.65L161.49-31.65Q168.04-31.65 172.34-29.2 176.64-26.75 176.64-21.75L176.64-21.75Q176.64-20.2 175.96-18.78 175.29-17.35 174.14-16.4L174.14-16.4Q171.09-14.05 168.04-13.25L168.04-13.25ZM171.39-21.9Q171.39-24.3 168.84-25.83 166.29-27.35 161.59-27.35L161.59-27.35Q159.49-27.35 157.44-26.85L157.44-26.85 157.49-24.3Q157.49-22.1 157.34-20L157.34-20Q157.19-17.9 157.19-15.5L157.19-15.5Q158.04-15.7 158.99-15.78 159.94-15.85 160.24-15.9L160.24-15.9Q162.44-16.1 163.64-16.4L163.64-16.4Q165.89-17.1 167.36-17.68 168.84-18.25 170.11-19.33 171.39-20.4 171.39-21.9L171.39-21.9ZM189.19-31.7Q195.99-31.7 199.96-29.83 203.94-27.95 205.99-25.65L205.99-25.65Q207.63-23.75 208.69-21.28 209.74-18.8 209.74-15.35L209.74-15.35Q209.74-12.8 208.59-10.03 207.44-7.25 205.59-5.55L205.59-5.55Q203.63-3.7 201.91-2.55 200.19-1.4 197.26-0.68 194.34 0.05 189.84 0.05L189.84 0.05Q186.44 0.05 183.69-0.73 180.94-1.5 180.94-3.35L180.94-3.35Q180.94-4.1 181.61-4.53 182.28-4.95 183.09-4.95L183.09-4.95Q183.53-4.95 183.69-4.9L183.69-4.9Q184.03-8.2 184.03-11.9L184.03-11.9Q184.03-16.05 183.84-18.78 183.63-21.5 183.28-24.2L183.28-24.2Q183.24-24.55 183.06-26.15 182.88-27.75 182.88-29.4L182.88-29.4Q182.88-30.45 183.94-31.18 184.99-31.9 186.09-31.9L186.09-31.9Q186.74-31.9 187.84-31.8L187.84-31.8Q188.74-31.7 189.19-31.7L189.19-31.7ZM188.53-4.65Q189.74-4.45 191.69-4.45L191.69-4.45Q194.99-4.45 197.94-5.83 200.88-7.2 202.69-9.68 204.49-12.15 204.49-15.4L204.49-15.4Q204.49-18.8 203.28-21.2 202.09-23.6 199.59-25.15L199.59-25.15Q197.74-26.3 195.03-26.83 192.34-27.35 188.53-27.35L188.53-27.35Q188.53-26.15 188.69-24.35L188.69-24.35Q188.69-23.75 188.78-22.25L188.78-22.25Q189.09-16.45 189.09-12.9L189.09-12.9Q189.09-7.75 188.53-4.65L188.53-4.65ZM245.93-16.9Q249.58-16.45 251.36-14.58 253.13-12.7 253.13-9.95L253.13-9.95Q253.13-7.2 251.11-4.75 249.08-2.3 245.93-0.95L245.93-0.95Q244.53-0.4 242.25-0.15 239.98 0.1 237.58 0.1L237.58 0.1Q233.58 0.1 229.38-0.65L229.38-0.65Q228.63-0.8 227.81-1.4 226.98-2 226.98-3.15L226.98-3.15Q226.93-7.75 226.63-15.95L226.63-15.95 226.58-18.7Q226.38-25.1 226.38-28.75L226.38-28.75Q226.38-29.4 227.16-30.28 227.93-31.15 229.03-31.25L229.03-31.25Q229.68-31.25 230.28-31.3L230.28-31.3Q235.93-31.85 237.83-31.85L237.83-31.85Q241.58-31.85 244.46-31.13 247.33-30.4 249.23-28.5L249.23-28.5Q249.93-27.7 250.38-26.48 250.83-25.25 250.83-24.1L250.83-24.1Q250.88-21.65 249.56-19.6 248.23-17.55 245.93-16.9L245.93-16.9ZM238.13-27.6Q236.43-27.6 234.6-27.4 232.78-27.2 231.53-26.9L231.53-26.9 231.83-17.45 233.63-17.5Q237.98-17.95 240.03-18.25L240.03-18.25Q241.33-18.55 242.58-19.43 243.83-20.3 244.66-21.28 245.48-22.25 245.48-22.75L245.48-22.75Q245.48-23.5 245.18-24.28 244.88-25.05 244.53-25.4L244.53-25.4Q243.18-26.7 241.78-27.15 240.38-27.6 238.13-27.6L238.13-27.6ZM231.98-4.3Q234.53-3.95 236.83-3.95L236.83-3.95Q241.88-3.95 244.81-5.28 247.73-6.6 247.73-10.35L247.73-10.35Q247.73-11.85 245.48-12.85 243.23-13.85 240.63-13.85L240.63-13.85Q238.88-13.85 236.18-13.45L236.18-13.45Q234.03-13.15 231.98-13.05L231.98-13.05Q232.08-10.05 232.08-9.25L232.08-9.25Q232.08-7.7 232.03-6.9L232.03-6.9 231.98-4.3ZM272.43-31.8Q275.78-31.8 278.53-30.98 281.28-30.15 283.03-28.55L283.03-28.55Q286.18-25.7 287.45-22.33 288.73-18.95 288.73-13.7L288.73-13.7Q288.73-12.6 288.45-11.7 288.18-10.8 287.58-9.4L287.58-9.4Q286.83-7.85 286.68-6.95L286.68-6.95Q285.68-5.2 283.4-3.6 281.13-2 278.48-1 275.83 0 273.83 0L273.83 0Q264.18 0 260.08-6.6L260.08-6.6Q258.93-8.45 258.3-10.45 257.68-12.45 257.68-14.35L257.68-14.35Q257.68-19.45 259.5-23.23 261.33-27 264.58-29.1L264.58-29.1Q266.53-30.25 268.65-31.03 270.78-31.8 272.43-31.8L272.43-31.8ZM262.88-14.2Q262.88-11.5 264.1-9.75 265.33-8 267.88-5.95L267.88-5.95Q269.98-5.15 270.73-4.93 271.48-4.7 272.43-4.7L272.43-4.7Q277.48-4.7 280.48-7.45 283.48-10.2 283.48-15L283.48-15Q283.48-18.8 282.63-21 281.78-23.2 279.58-24.95L279.58-24.95Q278.43-25.9 276.65-26.35 274.88-26.8 272.83-26.8L272.83-26.8Q269.73-26.8 267.48-24.98 265.23-23.15 264.05-20.25 262.88-17.35 262.88-14.2L262.88-14.2ZM291.88-29.15Q291.88-31.3 295.02-31.3L295.02-31.3Q296.38-31.3 300.18-31.2L300.18-31.2Q304.38-31 306.52-31L306.52-31Q308.27-31 310.77-31.2L310.77-31.2Q312.47-31.3 312.93-31.3L312.93-31.3Q315.68-31.2 317.57-30.3L317.57-30.3Q318.13-30.05 318.47-29.7 318.82-29.35 318.82-28.55L318.82-28.55Q318.82-27.45 318.13-26.68 317.43-25.9 316.43-25.9L316.43-25.9Q315.32-25.9 313.22-26.2L313.22-26.2Q311.38-26.55 309.97-26.55L309.97-26.55Q308.63-26.55 307.93-26.5L307.93-26.5Q307.77-24.85 307.77-18.6L307.77-18.6Q307.77-11.15 308.22-3.5L308.22-3.5 308.32-2.05Q308.32 0 305.97 0L305.97 0Q304.13 0 303.47-0.88 302.82-1.75 302.82-3.55L302.82-3.55Q302.82-7.1 302.63-12.4L302.63-12.4Q302.43-16.8 302.43-18.65L302.43-18.65Q302.43-19.9 302.72-26.3L302.72-26.3 296.88-26.25Q294.07-26.25 292.97-26.78 291.88-27.3 291.88-29.15L291.88-29.15ZM345.42-9.05Q345.42-6.7 344.35-5.03 343.27-3.35 340.82-1.95L340.82-1.95Q339.17-0.95 336.97-0.45 334.77 0.05 332.52 0.05L332.52 0.05Q330.22 0.05 326.82-1.45L326.82-1.45Q324.37-2.65 322.95-4.3 321.52-5.95 321.52-7.9L321.52-7.9Q321.52-9.25 322.12-9.88 322.72-10.5 324.07-10.5L324.07-10.5Q324.77-10.5 325.52-9.93 326.27-9.35 326.42-8.8L326.42-8.8Q327.12-6.75 328.87-5.68 330.62-4.6 333.22-4.6L333.22-4.6Q336.22-4.6 338.25-5.7 340.27-6.8 340.27-8.65L340.27-8.65Q340.27-10.45 338.07-11.85 335.87-13.25 333.57-13.8L333.57-13.8Q330.27-14.7 327.72-15.95L327.72-15.95Q325.07-17.25 323.77-19.15 322.47-21.05 322.47-23.15L322.47-23.15Q322.47-25.1 323.82-27.13 325.17-29.15 327.02-30.05L327.02-30.05Q328.02-30.55 330.45-31.13 332.87-31.7 333.97-31.7L333.97-31.7Q335.42-31.7 337.17-31.35 338.92-31 340.02-30.35L340.02-30.35Q342.22-29.1 343.27-28.1 344.32-27.1 344.32-25.6L344.32-25.6Q344.32-24.7 343.65-24 342.97-23.3 341.32-23.3L341.32-23.3Q340.92-23.3 340.52-23.65 340.12-24 339.52-24.7L339.52-24.7Q338.72-25.75 337.97-26.1L337.97-26.1Q337.22-26.35 335.8-26.65 334.37-26.95 333.27-26.95L333.27-26.95Q332.07-26.95 330.77-26.45 329.47-25.95 328.6-25.03 327.72-24.1 327.72-22.9L327.72-22.9Q327.72-21.9 328.65-21.18 329.57-20.45 330.87-20L330.87-20Q332.37-19.4 334.12-18.95L334.12-18.95Q336.42-18.25 337.9-17.68 339.37-17.1 340.77-16.25L340.77-16.25Q343.22-14.8 344.32-13.28 345.42-11.75 345.42-9.05L345.42-9.05ZM376.07-31.8Q379.42-31.8 382.17-30.98 384.92-30.15 386.67-28.55L386.67-28.55Q389.82-25.7 391.09-22.33 392.37-18.95 392.37-13.7L392.37-13.7Q392.37-12.6 392.09-11.7 391.82-10.8 391.22-9.4L391.22-9.4Q390.47-7.85 390.32-6.95L390.32-6.95Q389.32-5.2 387.04-3.6 384.77-2 382.12-1 379.47 0 377.47 0L377.47 0Q367.82 0 363.72-6.6L363.72-6.6Q362.57-8.45 361.94-10.45 361.32-12.45 361.32-14.35L361.32-14.35Q361.32-19.45 363.14-23.23 364.97-27 368.22-29.1L368.22-29.1Q370.17-30.25 372.29-31.03 374.42-31.8 376.07-31.8L376.07-31.8ZM366.52-14.2Q366.52-11.5 367.74-9.75 368.97-8 371.52-5.95L371.52-5.95Q373.62-5.15 374.37-4.93 375.12-4.7 376.07-4.7L376.07-4.7Q381.12-4.7 384.12-7.45 387.12-10.2 387.12-15L387.12-15Q387.12-18.8 386.27-21 385.42-23.2 383.22-24.95L383.22-24.95Q382.07-25.9 380.29-26.35 378.52-26.8 376.47-26.8L376.47-26.8Q373.37-26.8 371.12-24.98 368.87-23.15 367.69-20.25 366.52-17.35 366.52-14.2L366.52-14.2ZM419.47-28.1Q419.47-29.55 420.14-30.63 420.82-31.7 422.17-31.7L422.17-31.7Q423.32-31.7 424.22-31.25 425.12-30.8 425.12-29.75L425.12-29.75Q425.12-27.7 424.92-24L424.92-24Q424.72-20.4 424.72-18.65L424.72-18.65Q424.72-15.9 424.92-11.3L424.92-11.3Q425.12-6.9 425.12-4.85L425.12-4.85Q425.12-3.2 425.07-2.4L425.07-2.4Q425.07-1.6 424.19-0.83 423.32-0.05 421.52-0.05L421.52-0.05Q420.57-0.05 419.89-0.38 419.22-0.7 418.97-1.1L418.97-1.1Q416.62-3.95 412.12-10.8L412.12-10.8Q407.07-18.45 403.87-22.5L403.87-22.5Q404.27-18.9 404.27-13.7L404.27-13.7Q404.27-11.4 404.19-7.73 404.12-4.05 403.97-2.9L403.97-2.9Q403.77-1.45 403.09-0.68 402.42 0.1 400.97 0.1L400.97 0.1Q399.87 0.1 399.34-0.53 398.82-1.15 398.72-2.7L398.72-2.7Q398.67-4.75 398.97-8.85L398.97-8.85Q399.02-9.5 399.12-11.1 399.22-12.7 399.22-13.95L399.22-13.95Q399.22-17.4 398.87-21.85L398.87-21.85Q398.57-26.75 398.57-29.1L398.57-29.1Q398.57-30.3 399.44-30.95 400.32-31.6 401.47-31.6L401.47-31.6Q402.47-31.6 403.57-31.1L403.57-31.1Q407.87-25.7 415.22-15L415.22-15 419.92-7.8Q419.97-8.6 419.97-10.05L419.97-10.05Q419.97-12.6 419.87-15.55 419.77-18.5 419.72-19.55L419.72-19.55Q419.47-24.4 419.47-28.1L419.47-28.1ZM434.86-31.75Q435.81-31.75 436.59-31.25 437.36-30.75 437.51-29.5L437.51-29.5Q438.11-25.55 438.29-21.63 438.46-17.7 438.46-12.75L438.46-12.75Q438.46-10.65 438.11-5.1L438.11-5.1Q440.31-4.9 441.51-4.9L441.51-4.9Q442.36-4.9 445.36-5.15L445.36-5.15Q447.11-5.4 448.41-5.4L448.41-5.4Q449.61-5.4 450.61-5.18 451.61-4.95 452.66-4.45L452.66-4.45Q453.71-3.85 453.71-2.6L453.71-2.6Q453.71-1.6 453.09-0.8 452.46 0 451.61 0L451.61 0Q451.01 0 449.71-0.2L449.71-0.2Q447.36-0.55 445.21-0.55L445.21-0.55Q444.51-0.55 443.64-0.48 442.76-0.4 442.36-0.4L442.36-0.4Q441.16-0.25 439.96-0.25L439.96-0.25Q437.51-0.25 435.56-0.5L435.56-0.5Q434.56-0.6 433.56-1.28 432.56-1.95 432.56-3.25L432.56-3.25Q432.56-4 432.76-7.1L432.76-7.1Q433.11-12.25 433.11-14.95L433.11-14.95Q433.11-17.05 432.91-19.35 432.71-21.65 432.66-22.25L432.66-22.25Q432.21-26.5 432.21-29.25L432.21-29.25Q432.21-30.55 432.84-31.15 433.46-31.75 434.86-31.75L434.86-31.75ZM465.61-27.6Q465.46-24.4 465.46-21.45L465.46-21.45Q465.46-18.4 465.86-12.5L465.86-12.5Q465.91-11.6 466.06-8.88 466.21-6.15 466.21-3.9L466.21-3.9Q466.71-3.95 467.29-4.05 467.86-4.15 468.16-4.15L468.16-4.15Q469.26-4.15 469.91-3.6 470.56-3.05 470.56-1.9L470.56-1.9Q470.56-1.15 469.96-0.75 469.36-0.35 467.89-0.18 466.41 0 463.61 0L463.61 0Q460.51 0 458.96-0.2 457.41-0.4 456.81-0.98 456.21-1.55 456.21-2.7L456.21-2.7Q456.21-3.55 456.76-3.85 457.31-4.15 458.31-4.15L458.31-4.15 459.36-4.1 461.01-4 460.76-9.9Q460.46-14.7 460.46-18.7L460.46-18.7Q460.46-20.85 460.61-24.6L460.61-24.6 460.71-27.35Q459.01-27.25 458.06-27.25L458.06-27.25Q456.96-27.25 456.59-27.65 456.21-28.05 456.21-29.3L456.21-29.3Q456.21-30.7 458.14-31.1 460.06-31.5 464.01-31.5L464.01-31.5Q467.06-31.5 468.59-31.3 470.11-31.1 470.11-30.4L470.11-30.4Q470.11-28.7 469.39-28.18 468.66-27.65 466.61-27.65L466.61-27.65 465.61-27.6ZM497.11-28.1Q497.11-29.55 497.78-30.63 498.46-31.7 499.81-31.7L499.81-31.7Q500.96-31.7 501.86-31.25 502.76-30.8 502.76-29.75L502.76-29.75Q502.76-27.7 502.56-24L502.56-24Q502.36-20.4 502.36-18.65L502.36-18.65Q502.36-15.9 502.56-11.3L502.56-11.3Q502.76-6.9 502.76-4.85L502.76-4.85Q502.76-3.2 502.71-2.4L502.71-2.4Q502.71-1.6 501.83-0.83 500.96-0.05 499.16-0.05L499.16-0.05Q498.21-0.05 497.53-0.38 496.86-0.7 496.61-1.1L496.61-1.1Q494.26-3.95 489.76-10.8L489.76-10.8Q484.71-18.45 481.51-22.5L481.51-22.5Q481.91-18.9 481.91-13.7L481.91-13.7Q481.91-11.4 481.83-7.73 481.76-4.05 481.61-2.9L481.61-2.9Q481.41-1.45 480.73-0.68 480.06 0.1 478.61 0.1L478.61 0.1Q477.51 0.1 476.98-0.53 476.46-1.15 476.36-2.7L476.36-2.7Q476.31-4.75 476.61-8.85L476.61-8.85Q476.66-9.5 476.76-11.1 476.86-12.7 476.86-13.95L476.86-13.95Q476.86-17.4 476.51-21.85L476.51-21.85Q476.21-26.75 476.21-29.1L476.21-29.1Q476.21-30.3 477.08-30.95 477.96-31.6 479.11-31.6L479.11-31.6Q480.11-31.6 481.21-31.1L481.21-31.1Q485.51-25.7 492.86-15L492.86-15 497.56-7.8Q497.61-8.6 497.61-10.05L497.61-10.05Q497.61-12.6 497.51-15.55 497.41-18.5 497.36-19.55L497.36-19.55Q497.11-24.4 497.11-28.1L497.11-28.1ZM530.46-6.8Q531.4-6.8 531.88-6.08 532.36-5.35 532.36-4.5L532.36-4.5Q532.36-3.45 532.03-3.03 531.71-2.6 530.81-2.15L530.81-2.15Q528.71-1.15 525.61-0.55 522.5 0.05 518.96 0.05L518.96 0.05Q514.5 0.05 512.43-1.45 510.36-2.95 509.88-5.08 509.41-7.2 509.41-10.65L509.41-10.65Q509.41-14.35 509.71-17.93 510-21.5 510.75-27.05L510.75-27.05Q511.11-29.45 512.65-30.53 514.21-31.6 516.06-31.6L516.06-31.6Q517.61-31.6 521.11-31.7L521.11-31.7 525.46-31.75Q528.15-31.75 529.36-31.6L529.36-31.6Q530.86-31.3 531.58-30.93 532.31-30.55 532.31-29.65L532.31-29.65Q532.31-28.65 531.63-27.7 530.96-26.75 529.61-26.75L529.61-26.75Q528.06-26.75 525.15-26.95L525.15-26.95Q522.25-27.15 520.81-27.15L520.81-27.15Q519.56-27.15 518.36-27L518.36-27Q516.96-26.9 516.36-26.65 515.75-26.4 515.65-25.8L515.65-25.8Q514.96-20.65 514.96-18.2L514.96-18.2Q516.11-18.05 517.21-18.05L517.21-18.05Q518.61-18.05 520.21-18.2 521.81-18.35 522.25-18.4L522.25-18.4Q524.9-18.65 526.81-18.65L526.81-18.65Q527.9-18.65 528.48-18.25 529.06-17.85 529.06-17.15L529.06-17.15Q529.06-16.05 528.48-15.45 527.9-14.85 526.46-14.55L526.46-14.55Q524.71-14.2 522.13-14 519.56-13.8 517.11-13.8L517.11-13.8Q516.25-13.8 514.75-13.9L514.75-13.9Q514.61-10.85 514.61-8.25L514.61-8.25Q514.61-4.7 519.31-4.7L519.31-4.7Q521.81-4.7 523.46-5.05 525.11-5.4 527.25-6.05L527.25-6.05Q529.25-6.8 530.46-6.8L530.46-6.8ZM581.4-28.9Q581.7-29.95 582.3-30.63 582.9-31.3 583.6-31.3L583.6-31.3Q585.3-31.3 586.05-30.65 586.8-30 586.8-28.4L586.8-28.4Q586.8-27.95 586.1-25.85L586.1-25.85Q584.55-21.1 582.7-14.1L582.7-14.1Q582.25-12.5 581.97-11.3 581.7-10.1 581.5-9.3L581.5-9.3Q580.3-4.15 579.4-1.55L579.4-1.55Q579.1-0.8 578.35-0.38 577.6 0.05 576.75 0.05L576.75 0.05Q575.9 0.05 575.07-0.33 574.25-0.7 573.9-1.2L573.9-1.2Q572.35-4.25 570.07-9.53 567.8-14.8 566.55-18.75L566.55-18.75Q563.45-10.9 561-3.6L561-3.6Q560.85-3.15 560.67-2.63 560.5-2.1 560.3-1.55L560.3-1.55Q559.95-0.8 559.3-0.38 558.65 0.05 557.85 0.05L557.85 0.05Q556.95 0.05 556.1-0.33 555.25-0.7 554.95-1.2L554.95-1.2Q554.3-2.3 553.57-4.6 552.85-6.9 551.65-11.05L551.65-11.05 550.4-15.3Q549.1-19.45 548.15-23.8 547.2-28.15 547.2-29L547.2-29Q547.2-30.05 548.25-30.68 549.3-31.3 550.35-31.3L550.35-31.3Q550.95-31.3 551.6-30.93 552.25-30.55 552.45-29.65L552.45-29.65Q554.2-20.3 557.6-7.95L557.6-7.95Q558.9-11.05 560.47-15.5 562.05-19.95 563.5-24.15L563.5-24.15 564-25.65Q564.2-26.4 565.02-26.83 565.85-27.25 566.7-27.25L566.7-27.25Q567.8-27.25 568.5-26.7 569.2-26.15 569.4-25.5L569.4-25.5Q569.45-25.3 571.4-19.55 573.35-13.8 576.05-7.95L576.05-7.95Q577.05-10.9 578.45-17.4L578.45-17.4 579.2-20.7Q580.55-26 581.4-28.9L581.4-28.9ZM599.6-27.6Q599.45-24.4 599.45-21.45L599.45-21.45Q599.45-18.4 599.85-12.5L599.85-12.5Q599.9-11.6 600.05-8.88 600.2-6.15 600.2-3.9L600.2-3.9Q600.7-3.95 601.27-4.05 601.85-4.15 602.15-4.15L602.15-4.15Q603.25-4.15 603.9-3.6 604.55-3.05 604.55-1.9L604.55-1.9Q604.55-1.15 603.95-0.75 603.35-0.35 601.87-0.18 600.4 0 597.6 0L597.6 0Q594.5 0 592.95-0.2 591.4-0.4 590.8-0.98 590.2-1.55 590.2-2.7L590.2-2.7Q590.2-3.55 590.75-3.85 591.3-4.15 592.3-4.15L592.3-4.15 593.35-4.1 595-4 594.75-9.9Q594.45-14.7 594.45-18.7L594.45-18.7Q594.45-20.85 594.6-24.6L594.6-24.6 594.7-27.35Q593-27.25 592.05-27.25L592.05-27.25Q590.95-27.25 590.57-27.65 590.2-28.05 590.2-29.3L590.2-29.3Q590.2-30.7 592.12-31.1 594.05-31.5 598-31.5L598-31.5Q601.05-31.5 602.57-31.3 604.1-31.1 604.1-30.4L604.1-30.4Q604.1-28.7 603.37-28.18 602.65-27.65 600.6-27.65L600.6-27.65 599.6-27.6ZM607.14-29.15Q607.14-31.3 610.29-31.3L610.29-31.3Q611.64-31.3 615.44-31.2L615.44-31.2Q619.64-31 621.79-31L621.79-31Q623.54-31 626.04-31.2L626.04-31.2Q627.74-31.3 628.19-31.3L628.19-31.3Q630.94-31.2 632.84-30.3L632.84-30.3Q633.39-30.05 633.74-29.7 634.09-29.35 634.09-28.55L634.09-28.55Q634.09-27.45 633.39-26.68 632.69-25.9 631.69-25.9L631.69-25.9Q630.59-25.9 628.49-26.2L628.49-26.2Q626.64-26.55 625.24-26.55L625.24-26.55Q623.89-26.55 623.19-26.5L623.19-26.5Q623.04-24.85 623.04-18.6L623.04-18.6Q623.04-11.15 623.49-3.5L623.49-3.5 623.59-2.05Q623.59 0 621.24 0L621.24 0Q619.39 0 618.74-0.88 618.09-1.75 618.09-3.55L618.09-3.55Q618.09-7.1 617.89-12.4L617.89-12.4Q617.69-16.8 617.69-18.65L617.69-18.65Q617.69-19.9 617.99-26.3L617.99-26.3 612.14-26.25Q609.34-26.25 608.24-26.78 607.14-27.3 607.14-29.15L607.14-29.15ZM660.29-17.9Q660.24-18.7 660.24-20.3L660.24-20.3 660.24-22.2Q660.24-24.1 660.14-25.05L660.14-25.05Q660.04-25.85 660.04-29.2L660.04-29.2Q660.04-30.4 660.77-31.08 661.49-31.75 662.74-31.75L662.74-31.75Q664.34-31.75 664.89-31.05 665.44-30.35 665.44-28.75L665.44-28.75 665.44-26.85 665.39-21.35Q665.34-19.75 665.34-16.55L665.34-16.55 665.39-12.45Q665.44-11.5 665.44-9.8L665.44-9.8Q665.44-8.45 665.54-5.95L665.54-5.95Q665.64-3.65 665.64-2.5L665.64-2.5Q665.64-1.55 665.12-0.75 664.59 0.05 663.69 0.05L663.69 0.05Q660.19 0.05 660.19-2.3L660.19-2.3Q660.19-3.6 660.29-5.2L660.29-5.2Q660.39-6.35 660.39-8.7L660.39-8.7Q660.39-10.35 660.29-13.45L660.29-13.45Q657.94-13.25 652.19-13.25L652.19-13.25Q648.59-13.25 646.59-13.28 644.59-13.3 643.69-13.5L643.69-13.5 643.64-7.75Q643.64-7.2 643.89-4.8L643.89-4.8Q644.14-3.2 644.14-2L644.14-2Q644.14-1.25 643.27-0.58 642.39 0.1 641.64 0.1L641.64 0.1Q639.84 0.1 639.19-0.78 638.54-1.65 638.54-3.45L638.54-3.45 638.49-7.4Q638.44-8.1 638.44-9.35L638.44-9.35Q638.44-11.2 638.34-14.4L638.34-14.4Q638.24-17.3 638.24-18.6L638.24-18.6Q638.24-20.55 638.34-24.05L638.34-24.05Q638.44-27.35 638.44-28.95L638.44-28.95Q638.44-30.55 639.24-31.1 640.04-31.65 641.04-31.65L641.04-31.65Q643.84-31.65 643.84-29.8L643.84-29.8Q643.84-26.5 643.69-23.5L643.69-23.5Q643.59-19.7 643.59-17.95L643.59-17.95Q645.04-17.6 646.64-17.5 648.24-17.4 651.14-17.4L651.14-17.4Q657.04-17.4 660.29-17.9L660.29-17.9ZM686.59-31.8Q689.94-31.8 692.69-30.98 695.44-30.15 697.19-28.55L697.19-28.55Q700.34-25.7 701.61-22.33 702.89-18.95 702.89-13.7L702.89-13.7Q702.89-12.6 702.61-11.7 702.34-10.8 701.74-9.4L701.74-9.4Q700.99-7.85 700.84-6.95L700.84-6.95Q699.84-5.2 697.56-3.6 695.29-2 692.64-1 689.99 0 687.99 0L687.99 0Q678.34 0 674.24-6.6L674.24-6.6Q673.09-8.45 672.46-10.45 671.84-12.45 671.84-14.35L671.84-14.35Q671.84-19.45 673.66-23.23 675.49-27 678.74-29.1L678.74-29.1Q680.69-30.25 682.81-31.03 684.94-31.8 686.59-31.8L686.59-31.8ZM677.04-14.2Q677.04-11.5 678.26-9.75 679.49-8 682.04-5.95L682.04-5.95Q684.14-5.15 684.89-4.93 685.64-4.7 686.59-4.7L686.59-4.7Q691.64-4.7 694.64-7.45 697.64-10.2 697.64-15L697.64-15Q697.64-18.8 696.79-21 695.94-23.2 693.74-24.95L693.74-24.95Q692.59-25.9 690.81-26.35 689.04-26.8 686.99-26.8L686.99-26.8Q683.89-26.8 681.64-24.98 679.39-23.15 678.21-20.25 677.04-17.35 677.04-14.2L677.04-14.2ZM714.34-29Q714.34-27.55 714.24-25.15L714.24-25.15 714.19-21.9Q714.19-17.15 714.89-13.95L714.89-13.95Q715.89-9.45 717.89-7L717.89-7Q719.74-4.85 722.44-4.85L722.44-4.85Q724.54-4.85 726.19-6.13 727.84-7.4 728.74-9.3L728.74-9.3Q730.24-12.4 730.24-16.95L730.24-16.95Q730.24-19.7 729.89-23.45L729.89-23.45Q729.59-27.65 729.59-29.75L729.59-29.75Q729.59-30.85 730.89-31.18 732.19-31.5 733.59-31.5L733.59-31.5Q734.09-31.5 734.74-30.85 735.39-30.2 735.39-29.45L735.39-29.45Q735.39-27.95 735.24-26.6L735.24-26.6Q735.14-25.1 735.14-24.5L735.14-24.5Q735.14-22.6 735.34-19.2L735.34-19.2Q735.39-18.35 735.44-17.15 735.49-15.95 735.49-14.4L735.49-14.4Q735.49-11 733.86-7.63 732.24-4.25 729.34-2.08 726.44 0.1 722.79 0.1L722.79 0.1Q717.19 0.1 714.04-3.53 710.89-7.15 709.74-12.9L709.74-12.9Q709.09-16.2 708.91-19.8 708.74-23.4 708.74-29.45L708.74-29.45Q708.74-30.25 709.51-30.95 710.29-31.65 711.19-31.65L711.19-31.65Q714.34-31.65 714.34-29L714.34-29ZM739.18-29.15Q739.18-31.3 742.33-31.3L742.33-31.3Q743.68-31.3 747.48-31.2L747.48-31.2Q751.68-31 753.83-31L753.83-31Q755.58-31 758.08-31.2L758.08-31.2Q759.78-31.3 760.23-31.3L760.23-31.3Q762.98-31.2 764.88-30.3L764.88-30.3Q765.43-30.05 765.78-29.7 766.13-29.35 766.13-28.55L766.13-28.55Q766.13-27.45 765.43-26.68 764.73-25.9 763.73-25.9L763.73-25.9Q762.63-25.9 760.53-26.2L760.53-26.2Q758.68-26.55 757.28-26.55L757.28-26.55Q755.93-26.55 755.23-26.5L755.23-26.5Q755.08-24.85 755.08-18.6L755.08-18.6Q755.08-11.15 755.53-3.5L755.53-3.5 755.63-2.05Q755.63 0 753.28 0L753.28 0Q751.43 0 750.78-0.88 750.13-1.75 750.13-3.55L750.13-3.55Q750.13-7.1 749.93-12.4L749.93-12.4Q749.73-16.8 749.73-18.65L749.73-18.65Q749.73-19.9 750.03-26.3L750.03-26.3 744.18-26.25Q741.38-26.25 740.28-26.78 739.18-27.3 739.18-29.15L739.18-29.15ZM805.93-27.75Q806.68-26.85 806.98-26.3 807.28-25.75 807.28-25.25L807.28-25.25Q807.28-24.65 806.5-23.85 805.73-23.05 804.98-23.05L804.98-23.05Q803.98-23.05 803.38-23.35 802.78-23.65 802.38-24.3L802.38-24.3Q801.58-25.5 800.43-26.38 799.28-27.25 796.83-27.25L796.83-27.25Q794.73-27.25 792.05-26.3 789.38-25.35 788.23-23.95L788.23-23.95Q787.23-22.7 786.5-20.15 785.78-17.6 785.78-15.2L785.78-15.2Q785.78-12.3 787.05-9.88 788.33-7.45 790.75-6 793.18-4.55 796.58-4.55L796.58-4.55Q798.43-4.55 800.4-5.28 802.38-6 803.83-7.65L803.83-7.65 803.78-7.65Q804.68-8.6 806.03-8.6L806.03-8.6Q806.83-8.6 807.55-7.9 808.28-7.2 808.28-6.5L808.28-6.5Q808.28-5.75 808.05-5.18 807.83-4.6 807.23-3.9L807.23-3.9Q805.18-1.6 802.38-0.75 799.58 0.1 795.68 0.1L795.68 0.1Q792.23 0.1 788.7-1.55 785.18-3.2 783.28-5.55L783.28-5.55Q782.28-7 781.35-9.73 780.43-12.45 780.43-14.15L780.43-14.15Q780.43-18.5 781.75-22.43 783.08-26.35 785.73-28.7L785.73-28.7Q787.48-30.3 790.78-31.1 794.08-31.9 796.83-31.9L796.83-31.9Q800.18-31.9 802.1-30.98 804.03-30.05 805.93-27.75L805.93-27.75ZM827.43-31.8Q830.78-31.8 833.53-30.98 836.28-30.15 838.03-28.55L838.03-28.55Q841.18-25.7 842.45-22.33 843.73-18.95 843.73-13.7L843.73-13.7Q843.73-12.6 843.45-11.7 843.18-10.8 842.58-9.4L842.58-9.4Q841.83-7.85 841.68-6.95L841.68-6.95Q840.68-5.2 838.4-3.6 836.13-2 833.48-1 830.83 0 828.83 0L828.83 0Q819.18 0 815.08-6.6L815.08-6.6Q813.93-8.45 813.3-10.45 812.68-12.45 812.68-14.35L812.68-14.35Q812.68-19.45 814.5-23.23 816.33-27 819.58-29.1L819.58-29.1Q821.53-30.25 823.65-31.03 825.78-31.8 827.43-31.8L827.43-31.8ZM817.88-14.2Q817.88-11.5 819.1-9.75 820.33-8 822.88-5.95L822.88-5.95Q824.98-5.15 825.73-4.93 826.48-4.7 827.43-4.7L827.43-4.7Q832.48-4.7 835.48-7.45 838.48-10.2 838.48-15L838.48-15Q838.48-18.8 837.63-21 836.78-23.2 834.58-24.95L834.58-24.95Q833.43-25.9 831.65-26.35 829.88-26.8 827.83-26.8L827.83-26.8Q824.73-26.8 822.48-24.98 820.23-23.15 819.05-20.25 817.88-17.35 817.88-14.2L817.88-14.2ZM857.07-31.7Q863.87-31.7 867.85-29.83 871.82-27.95 873.87-25.65L873.87-25.65Q875.52-23.75 876.57-21.28 877.62-18.8 877.62-15.35L877.62-15.35Q877.62-12.8 876.47-10.03 875.32-7.25 873.47-5.55L873.47-5.55Q871.52-3.7 869.8-2.55 868.07-1.4 865.15-0.68 862.22 0.05 857.72 0.05L857.72 0.05Q854.32 0.05 851.57-0.73 848.82-1.5 848.82-3.35L848.82-3.35Q848.82-4.1 849.5-4.53 850.17-4.95 850.97-4.95L850.97-4.95Q851.42-4.95 851.57-4.9L851.57-4.9Q851.92-8.2 851.92-11.9L851.92-11.9Q851.92-16.05 851.72-18.78 851.52-21.5 851.17-24.2L851.17-24.2Q851.12-24.55 850.95-26.15 850.77-27.75 850.77-29.4L850.77-29.4Q850.77-30.45 851.82-31.18 852.87-31.9 853.97-31.9L853.97-31.9Q854.62-31.9 855.72-31.8L855.72-31.8Q856.62-31.7 857.07-31.7L857.07-31.7ZM856.42-4.65Q857.62-4.45 859.57-4.45L859.57-4.45Q862.87-4.45 865.82-5.83 868.77-7.2 870.57-9.68 872.37-12.15 872.37-15.4L872.37-15.4Q872.37-18.8 871.17-21.2 869.97-23.6 867.47-25.15L867.47-25.15Q865.62-26.3 862.92-26.83 860.22-27.35 856.42-27.35L856.42-27.35Q856.42-26.15 856.57-24.35L856.57-24.35Q856.57-23.75 856.67-22.25L856.67-22.25Q856.97-16.45 856.97-12.9L856.97-12.9Q856.97-7.75 856.42-4.65L856.42-4.65ZM891.07-27.6Q890.92-24.4 890.92-21.45L890.92-21.45Q890.92-18.4 891.32-12.5L891.32-12.5Q891.37-11.6 891.52-8.88 891.67-6.15 891.67-3.9L891.67-3.9Q892.17-3.95 892.75-4.05 893.32-4.15 893.62-4.15L893.62-4.15Q894.72-4.15 895.37-3.6 896.02-3.05 896.02-1.9L896.02-1.9Q896.02-1.15 895.42-0.75 894.82-0.35 893.35-0.18 891.87 0 889.07 0L889.07 0Q885.97 0 884.42-0.2 882.87-0.4 882.27-0.98 881.67-1.55 881.67-2.7L881.67-2.7Q881.67-3.55 882.22-3.85 882.77-4.15 883.77-4.15L883.77-4.15 884.82-4.1 886.47-4 886.22-9.9Q885.92-14.7 885.92-18.7L885.92-18.7Q885.92-20.85 886.07-24.6L886.07-24.6 886.17-27.35Q884.47-27.25 883.52-27.25L883.52-27.25Q882.42-27.25 882.05-27.65 881.67-28.05 881.67-29.3L881.67-29.3Q881.67-30.7 883.6-31.1 885.52-31.5 889.47-31.5L889.47-31.5Q892.52-31.5 894.05-31.3 895.57-31.1 895.57-30.4L895.57-30.4Q895.57-28.7 894.85-28.18 894.12-27.65 892.07-27.65L892.07-27.65 891.07-27.6ZM922.57-28.1Q922.57-29.55 923.24-30.63 923.92-31.7 925.27-31.7L925.27-31.7Q926.42-31.7 927.32-31.25 928.22-30.8 928.22-29.75L928.22-29.75Q928.22-27.7 928.02-24L928.02-24Q927.82-20.4 927.82-18.65L927.82-18.65Q927.82-15.9 928.02-11.3L928.02-11.3Q928.22-6.9 928.22-4.85L928.22-4.85Q928.22-3.2 928.17-2.4L928.17-2.4Q928.17-1.6 927.29-0.83 926.42-0.05 924.62-0.05L924.62-0.05Q923.67-0.05 922.99-0.38 922.32-0.7 922.07-1.1L922.07-1.1Q919.72-3.95 915.22-10.8L915.22-10.8Q910.17-18.45 906.97-22.5L906.97-22.5Q907.37-18.9 907.37-13.7L907.37-13.7Q907.37-11.4 907.29-7.73 907.22-4.05 907.07-2.9L907.07-2.9Q906.87-1.45 906.19-0.68 905.52 0.1 904.07 0.1L904.07 0.1Q902.97 0.1 902.44-0.53 901.92-1.15 901.82-2.7L901.82-2.7Q901.77-4.75 902.07-8.85L902.07-8.85Q902.12-9.5 902.22-11.1 902.32-12.7 902.32-13.95L902.32-13.95Q902.32-17.4 901.97-21.85L901.97-21.85Q901.67-26.75 901.67-29.1L901.67-29.1Q901.67-30.3 902.54-30.95 903.42-31.6 904.57-31.6L904.57-31.6Q905.57-31.6 906.67-31.1L906.67-31.1Q910.97-25.7 918.32-15L918.32-15 923.02-7.8Q923.07-8.6 923.07-10.05L923.07-10.05Q923.07-12.6 922.97-15.55 922.87-18.5 922.82-19.55L922.82-19.55Q922.57-24.4 922.57-28.1L922.57-28.1ZM958.37-24.05Q956.22-25.6 954.67-26.33 953.12-27.05 951.07-27.05L951.07-27.05Q946.97-27.05 944.02-24.95L944.02-24.95Q941.77-23.3 940.67-20.65 939.57-18 939.57-14.7L939.57-14.7Q939.57-11.55 941.02-9.18 942.47-6.8 944.77-5.55 947.07-4.3 949.57-4.3L949.57-4.3Q952.07-4.3 953.89-5.08 955.72-5.85 956.82-7.1L956.82-7.1Q958.52-9.25 958.52-12.8L958.52-12.8Q958.52-13.3 957.72-13.5 956.92-13.7 955.42-13.7L955.42-13.7 951.82-13.65Q950.37-13.65 949.52-14.2 948.67-14.75 948.67-15.6L948.67-15.6Q948.67-16.8 949.47-17.38 950.27-17.95 951.62-17.95L951.62-17.95Q953.22-17.95 955.92-17.75L955.92-17.75Q958.62-17.55 959.82-17.55L959.82-17.55Q961.57-17.55 962.64-16.45 963.72-15.35 963.72-13.25L963.72-13.25Q963.72-11.3 962.87-8.7 962.02-6.1 960.47-4.05L960.47-4.05Q958.97-2.05 956.04-1.03 953.12 0 949.57 0L949.57 0Q946.62 0 943.87-0.95 941.12-1.9 939.27-3.6L939.27-3.6Q936.97-5.75 935.64-8.72 934.32-11.7 934.32-14.65L934.32-14.65Q934.32-18.95 936.34-23.03 938.37-27.1 941.82-29.35L941.82-29.35Q943.32-30.35 946.02-31 948.72-31.65 950.97-31.65L950.97-31.65Q954.47-31.65 957.12-30.58 959.77-29.5 961.17-27.5L961.17-27.5Q961.77-26.6 961.77-25.9L961.77-25.9Q961.77-25.1 961.07-24.4 960.37-23.7 959.67-23.7L959.67-23.7Q959.37-23.7 958.97-23.8 958.57-23.9 958.37-24.05L958.37-24.05Z" opacity="1" transform="matrix(1,0,0,1,0,0)" fill="#ffffff" class="undefined-text-1" data-fill-palette-color="secondary" id="text-1"></path></svg></g></svg></g></svg></g></svg></g><g transform="matrix(1,0,0,1,150.0577903176382,0)"><svg viewBox="0 0 95.40441936472357 81.87803652570717" height="81.87803652570717" width="95.40441936472357"><g><svg xmlns="http://www.w3.org/2000/svg" xmlns:xlink="http://www.w3.org/1999/xlink" version="1.1" x="0" y="0" viewBox="29.785000000000004 32.651999999999994 40.428999999999995 34.69700000000001" enable-background="new 0 0 100 100" xml:space="preserve" height="81.87803652570717" width="95.40441936472357" class="icon-icon-0" data-fill-palette-color="accent" id="icon-0"><g fill="#b2fcfb" data-fill-palette-color="accent"><g fill="#b2fcfb" data-fill-palette-color="accent"><path d="M32.121 67.349c-1.288 0-2.336-1.048-2.336-2.337 0-1.288 1.048-2.336 2.336-2.336 1.288 0 2.336 1.048 2.336 2.336C34.457 66.301 33.409 67.349 32.121 67.349z" fill="#b2fcfb" data-fill-palette-color="accent"></path><path d="M36.375 62.29c-1.857 0-3.368-1.51-3.368-3.367 0-1.858 1.511-3.369 3.368-3.369 1.858 0 3.37 1.511 3.37 3.369C39.744 60.779 38.233 62.29 36.375 62.29zM36.375 57.681c-0.684 0-1.24 0.557-1.24 1.241 0 0.683 0.556 1.239 1.24 1.239 0.685 0 1.242-0.556 1.242-1.239C37.617 58.238 37.06 57.681 36.375 57.681z" fill="#b2fcfb" data-fill-palette-color="accent"></path><path d="M53.971 61.258c-2.128 0-4.116-0.904-5.508-2.465-0.798 0.493-1.719 0.756-2.681 0.756-2.627 0-4.798-1.99-5.086-4.542-2.97-0.942-5.046-3.716-5.046-6.897 0-2.59 1.384-4.96 3.587-6.249-0.037-0.303-0.057-0.603-0.057-0.898 0-4.145 3.373-7.517 7.518-7.517 1.627 0 3.173 0.513 4.457 1.464 1.31-1.431 3.157-2.258 5.135-2.258 3.047 0 5.699 1.968 6.625 4.796 4.034 0.052 7.299 3.349 7.299 7.394 0 2.553-1.33 4.914-3.459 6.255 0.112 0.422 0.168 0.855 0.168 1.297 0 2.823-2.296 5.118-5.118 5.118-0.443 0-0.886-0.058-1.313-0.172C59.222 59.72 56.721 61.258 53.971 61.258zM48.653 56.228c0.037 0 0.074 0.002 0.111 0.006 0.32 0.033 0.608 0.21 0.783 0.48 0.977 1.513 2.632 2.416 4.424 2.416 2.219 0 4.211-1.407 4.956-3.501 0.103-0.291 0.328-0.522 0.615-0.634 0.287-0.113 0.608-0.095 0.881 0.048 0.43 0.225 0.895 0.34 1.382 0.34 1.649 0 2.99-1.342 2.99-2.991 0-0.457-0.105-0.902-0.312-1.322-0.127-0.258-0.145-0.557-0.048-0.828 0.097-0.272 0.299-0.492 0.561-0.611 1.877-0.854 3.09-2.735 3.09-4.791 0-2.904-2.363-5.267-5.269-5.267-0.202 0-0.401 0.014-0.597 0.037-0.551 0.057-1.065-0.315-1.166-0.865-0.422-2.298-2.426-3.966-4.764-3.966-1.659 0-3.186 0.84-4.085 2.244-0.175 0.273-0.464 0.452-0.787 0.485-0.325 0.036-0.643-0.081-0.87-0.313-1.024-1.046-2.392-1.622-3.85-1.622-2.972 0-5.39 2.418-5.39 5.389 0 0.401 0.05 0.82 0.15 1.245 0.116 0.5-0.14 1.012-0.61 1.217-1.865 0.815-3.07 2.654-3.07 4.685 0 2.454 1.75 4.565 4.161 5.02 0.53 0.1 0.901 0.58 0.864 1.119-0.007 0.099-0.011 0.14-0.011 0.183 0 1.649 1.341 2.991 2.99 2.991 0.8 0 1.552-0.313 2.117-0.88C48.099 56.34 48.371 56.228 48.653 56.228z" fill="#b2fcfb" data-fill-palette-color="accent"></path></g></g></svg></g></svg></g><g></g></svg></g><defs></defs></svg><rect width="395.52" height="150.8853694549544" fill="none" stroke="none" visibility="hidden"></rect></g></svg></g></svg>