<svg width="26" height="26" viewBox="0 0 26 26" fill="none" xmlns="http://www.w3.org/2000/svg">
<g clip-path="url(#clip0_503_363)">
<mask id="path-1-outside-1_503_363" maskUnits="userSpaceOnUse" x="-910" y="-558" width="1441" height="1840" fill="black">
<rect fill="white" x="-910" y="-558" width="1441" height="1840"/>
<path d="M-909 -558H531V1282H-909V-558Z"/>
</mask>
<path d="M-909 -558H531V1282H-909V-558Z" fill="#23272A"/>
<rect x="-253" y="-339" width="672" height="464" rx="39" fill="#282E3B" stroke="#4A74C6" stroke-width="2"/>
<rect x="-253" y="-339" width="672" height="464" rx="39" fill="#282E3B" stroke="#4A74C6" stroke-width="2"/>
<circle cx="13" cy="12.9998" r="4.44118" stroke="#5865F2"/>
<path d="M6.80862 4.20932C8.49309 5.27302 10.7231 4.34933 11.162 2.40608C11.6045 0.447267 14.3955 0.447267 14.838 2.40608C15.2769 4.34933 17.5069 5.27302 19.1914 4.20932C20.8893 3.1371 22.8629 5.11065 21.7907 6.80862C20.727 8.49308 21.6507 10.7231 23.5939 11.162C25.5527 11.6045 25.5527 14.3955 23.5939 14.838C21.6507 15.2769 20.727 17.5069 21.7907 19.1914C22.8629 20.8893 20.8893 22.8629 19.1914 21.7907C17.5069 20.727 15.2769 21.6507 14.838 23.5939C14.3955 25.5527 11.6045 25.5527 11.162 23.5939C10.7231 21.6507 8.49308 20.727 6.80862 21.7907C5.11065 22.8629 3.1371 20.8893 4.20932 19.1914C5.27302 17.5069 4.34933 15.2769 2.40608 14.838C0.447267 14.3955 0.447267 11.6045 2.40608 11.162C4.34933 10.7231 5.27302 8.49309 4.20932 6.80862C3.1371 5.11065 5.11065 3.1371 6.80862 4.20932Z" stroke="#5865F2"/>
</g>
<path d="M-908 1282V-558H-910V1282H-908Z" fill="#52565F" mask="url(#path-1-outside-1_503_363)"/>
<defs>
<clipPath id="clip0_503_363">
<path d="M-909 -558H531V1282H-909V-558Z" fill="white"/>
</clipPath>
</defs>
</svg>
